Coordinates
version=1
nRows=49
nColumns=12
inDegrees=yes

Units are S.I. units (second, meters, Newtons, ...)
Angles are in degrees

endheader
time	SC_y	SC_z	SC_x	AC_y	AC_z	AC_x	GH_y	GH_z	GH_yy	EL_x	PS_y
       0.0              -18.27         -1.215          25.64          63.42         -12.38          -2.79          119.1          56.52          67.56          131.2          148.2
   0.04285              -18.27         -1.213          25.65          63.42         -12.38         -2.789          119.1          56.52          67.55          131.2          148.2
    0.0857              -18.28          -1.21          25.65          63.42         -12.38         -2.788          119.1          56.52          67.53          131.2          148.2
    0.1286              -18.28         -1.207          25.65          63.41         -12.38         -2.787          119.1          56.52          67.51          131.2          148.2
    0.1714              -18.29         -1.204          25.65          63.41         -12.37         -2.786          119.1          56.52          67.49          131.2          148.2
    0.2143               -18.3           -1.2          25.66          63.41         -12.37         -2.785          119.1          56.52          67.47          131.1          148.2
    0.2571               -18.3         -1.197          25.66          63.41         -12.37         -2.784          119.1          56.52          67.45          131.1          148.2
       0.3              -18.31         -1.193          25.66           63.4         -12.37         -2.783          119.1          56.51          67.43          131.1          148.2
    0.3428              -18.32         -1.189          25.67           63.4         -12.37         -2.781          119.1          56.51           67.4          131.1          148.2
    0.3857              -18.33         -1.185          25.67           63.4         -12.37          -2.78          119.1          56.51          67.38          131.0          148.2
    0.4285              -18.34          -1.18          25.68           63.4         -12.37         -2.778          119.1          56.51          67.35          131.0          148.2
    0.4714              -18.35         -1.175          25.68          63.39         -12.37         -2.776          119.1          56.51          67.32          131.0          148.2
    0.5142              -18.36          -1.17          25.69          63.39         -12.36         -2.774          119.1          56.51          67.28          130.9          148.2
    0.5571              -18.37         -1.164          25.69          63.39         -12.36         -2.772          119.1           56.5          67.25          130.9          148.2
    0.5999              -18.38         -1.157           25.7          63.38         -12.36          -2.77          119.2           56.5          67.21          130.9          148.2
    0.6428               -18.4         -1.151           25.7          63.38         -12.36         -2.768          119.2           56.5          67.17          130.8          148.2
    0.6856              -18.41         -1.143          25.71          63.37         -12.36         -2.765          119.2           56.5          67.12          130.8          148.2
    0.7285              -18.43         -1.135          25.72          63.37         -12.35         -2.762          119.2          56.49          67.07          130.7          148.2
    0.7713              -18.44         -1.126          25.73          63.36         -12.35         -2.759          119.2          56.49          67.02          130.7          148.2
    0.8142              -18.46         -1.116          25.74          63.35         -12.35         -2.756          119.2          56.49          66.96          130.6          148.2
     0.857              -18.49         -1.106          25.75          63.35         -12.35         -2.752          119.2          56.48          66.89          130.6          148.2
    0.8999              -18.51         -1.094          25.76          63.34         -12.34         -2.748          119.2          56.48          66.82          130.5          148.2
    0.9427              -18.54         -1.081          25.77          63.33         -12.34         -2.744          119.2          56.47          66.74          130.4          148.2
    0.9856              -18.56         -1.067          25.78          63.32         -12.34         -2.739          119.2          56.47          66.65          130.3          148.2
     1.028               -18.6         -1.051           25.8          63.31         -12.33         -2.733          119.2          56.46          66.56          130.2          148.3
     1.071              -18.63         -1.033          25.82           63.3         -12.33         -2.727          119.3          56.46          66.45          130.1          148.3
     1.114              -18.67         -1.013          25.83          63.28         -12.32          -2.72          119.3          56.45          66.32          130.0          148.3
     1.157              -18.72        -0.9905          25.86          63.27         -12.31         -2.712          119.3          56.44          66.19          129.9          148.3
       1.2              -18.77        -0.9651          25.88          63.25         -12.31         -2.703          119.3          56.43          66.03          129.7          148.3
     1.243              -18.83        -0.9363          25.91          63.23          -12.3         -2.693          119.3          56.42          65.85          129.5          148.3
     1.286              -18.89        -0.9034          25.94          63.21         -12.29         -2.682          119.4          56.41          65.65          129.4          148.3
     1.328              -18.97        -0.8657          25.97          63.19         -12.28         -2.669          119.4           56.4          65.42          129.1          148.3
     1.371              -19.05        -0.8221          26.01          63.16         -12.27         -2.653          119.4          56.38          65.15          128.9          148.4
     1.414              -19.16        -0.7715          26.06          63.12         -12.25         -2.636          119.5          56.37          64.84          128.6          148.4
     1.457              -19.27        -0.7122          26.12          63.08         -12.23         -2.615          119.5          56.34          64.48          128.2          148.4
       1.5              -19.41        -0.6424          26.18          63.04         -12.21         -2.591          119.6          56.32          64.05          127.8          148.5
     1.543              -19.58        -0.5594          26.26          62.98         -12.19         -2.562          119.6          56.29          63.55          127.3          148.5
     1.586              -19.78        -0.4599          26.36          62.91         -12.16         -2.527          119.7          56.26          62.94          126.7          148.5
     1.628              -20.02        -0.3396          26.47          62.83         -12.13         -2.485          119.8          56.21           62.2          126.0          148.6
     1.671              -20.32        -0.1926          26.61          62.74         -12.08         -2.434          119.9          56.16           61.3          125.1          148.7
     1.714              -20.68        -0.0111          26.78          62.61         -12.03         -2.371          120.1           56.1          60.19          124.0          148.8
     1.757              -21.13         0.2152          26.99          62.46         -11.97         -2.292          120.2          56.02           58.8          122.6          148.9
       1.8              -21.71         0.5002          27.26          62.27         -11.89         -2.193          120.5          55.92          57.06          120.9          149.0
     1.843              -22.43         0.8625           27.6          62.03         -11.78         -2.066          120.7          55.79          54.84          118.8          149.2
     1.885              -23.36          1.326          28.04          61.72         -11.65         -1.905          121.1          55.63           52.0          116.0          149.4
     1.928              -24.56          1.921           28.6          61.32         -11.48         -1.698          121.6          55.42          48.35          112.4          149.7
     1.971              -26.08          2.682          29.32          60.81         -11.26         -1.433          122.2          55.15           43.7          107.9          150.1
     2.014               -28.0          3.638          30.22          60.17         -10.99           -1.1          122.9          54.81          37.84          102.1          150.6
     2.057              -30.33          4.803          31.32          59.39         -10.66         -0.694          123.9           54.4          30.71          95.15          151.2
